<svg width="76.032px" height="76.032px" viewBox="-7.72 0 76.032 76.032" xmlns="http://www.w3.org/2000/svg">
  <g id="medal_silver" data-name="medal silver" transform="translate(-673.982 -240.616)">
    <path id="Path_109" data-name="Path 109" d="M731.12,289.8a26.843,26.843,0,1,1-26.843-26.843A26.851,26.851,0,0,1,731.12,289.8Z" fill="#f4f4f4"/>
    <path id="Path_110" data-name="Path 110" d="M722.505,289.8a18.228,18.228,0,1,1-18.228-18.23A18.231,18.231,0,0,1,722.505,289.8Z" fill="#c9d1d1"/>
    <path id="Path_111" data-name="Path 111" d="M718.258,289.8a13.985,13.985,0,1,1-13.981-13.986A13.982,13.982,0,0,1,718.258,289.8Z" fill="#f4f4f4"/>
    <path id="Path_112" data-name="Path 112" d="M717.718,240.616l-24.975,24.972a26.636,26.636,0,0,1,25.665,1.43l10.418-10.426,5.746-5.741V240.616Z" fill="#bc4330"/>
    <path id="Path_113" data-name="Path 113" d="M690.146,267.01a26.627,26.627,0,0,1,25.658-1.417l-24.97-24.977H673.982v10.235l5.739,5.741Z" fill="#ff5245"/>
  </g>
</svg>
